:SAMPLES-PER-SECOND 30
:FULLY-SPECIFIED
:DEGREES
188
root  -31.0332 40.77 6.33403 -73.1234 -85.6489 78.627
RightUpLeg  -3.13589 -13.5766 -17.4294
RightLeg  5.85764 -9.64218 0.846787
RightFoot  -2.4301 -0.833257 10.4524
RightToes  0.000482159 0.542163 -0.142577
Spine  18.2631 3.22136 9.96938
Spine1  9.62222 8.14798 -11.0116
HEad  -24.6125 -11.8363 -1.59105
LeftShoulder1  7.08633 -11.3116 -41.484
LeftArm  -10.8529 16.4274 -32.5723
LeftForeArm  39.0981 -6.74906 -4.8194
LeftHand  -0.25398 0.0180481 5.50724
RightShoulder  6.56168 11.0282 39.0619
RightArm  -19.1671 3.19934 30.1936
RightForeArm  6.53933 5.68842 4.28064
RightHand  -1.23229 2.46709 -18.3403
LeftUpLeg  -12.8577 0.335139 -3.9663
LeftLeg  0.83616 8.15231 -5.30869
LeftFoot  5.71748 -0.74899 4.75928
LeftToes  1.06244e-005 4.65856e-005 -8.18505e-006
189
root  -30.9529 40.7748 6.41021 -103.115 -85.6121 108.362
RightUpLeg  -3.73116 -13.3635 -17.3501
RightLeg  5.63574 -7.76561 0.783344
RightFoot  -1.92808 -0.872961 10.4153
RightToes  0.000482159 0.542163 -0.142577
Spine  18.404 3.16566 10.1538
Spine1  9.90874 8.10231 -10.7624
HEad  -23.3567 -11.203 -2.54179
LeftShoulder1  7.00039 -11.2835 -41.0252
LeftArm  -10.8021 16.6925 -33.5256
LeftForeArm  41.7636 -6.54422 -4.76536
LeftHand  -0.25398 0.0180481 5.50724
RightShoulder  6.29048 10.7746 38.0084
RightArm  -22.9667 4.78368 27.2642
RightForeArm  3.66045 -0.924491 2.1248
RightHand  -1.1952 1.88645 -19.1225
LeftUpLeg  -12.6673 0.663312 -3.7376
LeftLeg  0.908023 10.0428 -5.36796
LeftFoot  5.53995 -0.759622 4.88864
LeftToes  1.06244e-005 4.65856e-005 -8.18505e-006
190
root  -30.8986 40.7824 6.47305 -120.353 -85.0059 125.427
RightUpLeg  -4.00931 -13.1751 -17.2569
RightLeg  5.24512 -6.61502 0.792283
RightFoot  -1.462 -0.911825 10.4073
RightToes  0.000482159 0.542163 -0.142577
Spine  18.3609 2.93552 10.4724
Spine1  10.147 7.87408 -10.5503
HEad  -22.1776 -10.6907 -2.99725
LeftShoulder1  6.98832 -11.3076 -40.8765
LeftArm  -11.3286 16.6046 -33.8867
LeftForeArm  42.6776 -7.50539 -4.63634
LeftHand  -0.25398 0.0180481 5.50724
RightShoulder  5.92288 10.4091 36.5729
RightArm  -24.567 3.91705 24.9194
RightForeArm  -0.565307 -0.345029 1.92669
RightHand  -1.35708 2.36846 -20.3779
LeftUpLeg  -12.5337 0.842298 -3.57056
LeftLeg  0.947339 11.3169 -5.33461
LeftFoot  5.45034 -0.749891 4.8532
LeftToes  1.06244e-005 4.65856e-005 -8.18505e-006
191
root  -30.8643 40.7902 6.50847 -127.086 -84.5269 132.15
RightUpLeg  -4.14446 -13.0805 -17.2227
RightLeg  4.82752 -6.0594 0.841929
RightFoot  -1.12298 -0.936117 10.3574
RightToes  0.000482159 0.542163 -0.142577
Spine  18.1172 2.55869 10.4873
Spine1  10.196 7.3081 -10.045
HEad  -21.2603 -10.1689 -2.88615
LeftShoulder1  6.984 -11.3039 -40.8601
LeftArm  -11.8131 16.3612 -33.8654
LeftForeArm  41.4194 -9.56765 -4.57214
LeftHand  -0.25398 0.0180481 5.50724
RightShoulder  5.57651 9.91833 35.577
RightArm  -23.1784 1.91477 22.4202
RightForeArm  -4.20719 4.95439 3.49894
RightHand  -1.47166 3.09765 -20.2318
LeftUpLeg  -12.4908 0.876159 -3.51323
LeftLeg  0.81653 12.0142 -5.32972
LeftFoot  5.50417 -0.749564 4.83299
LeftToes  1.06244e-005 4.65856e-005 -8.18505e-006
192
root  -30.846 40.7959 6.51371 -128.902 -84.2328 134.041
RightUpLeg  -4.24126 -13.1361 -17.302
RightLeg  4.54991 -5.73277 0.930773
RightFoot  -0.942557 -0.941771 10.2526
RightToes  0.000482159 0.542163 -0.142577
Spine  17.7443 2.13717 10.0757
Spine1  10.099 6.49435 -9.18568
HEad  -20.7398 -9.57377 -2.82191
LeftShoulder1  6.93467 -11.2286 -40.7714
LeftArm  -11.4262 15.9139 -33.7839
LeftForeArm  38.6741 -12.636 -4.38509
LeftHand  -0.25398 0.0180481 5.50724
RightShoulder  5.35969 9.52033 35.1889
RightArm  -19.6055 -0.167648 19.5437
RightForeArm  -6.917 12.3899 5.20488
RightHand  -1.46274 3.38911 -19.4789
LeftUpLeg  -12.4586 0.830993 -3.55476
LeftLeg  0.528485 12.3532 -5.40329
LeftFoot  5.65177 -0.767416 4.90366
LeftToes  1.06244e-005 4.65856e-005 -8.18505e-006
193
root  -30.841 40.8031 6.49579 -129.502 -84.0652 134.621
RightUpLeg  -4.207 -13.2155 -17.3865
RightLeg  4.39921 -5.4826 1.01666
RightFoot  -0.84699 -0.939183 10.1377
RightToes  0.000482159 0.542163 -0.142577
Spine  17.2703 1.71093 9.51121
Spine1  10.1431 5.62277 -8.19801
HEad  -20.3775 -8.46355 -3.05653
LeftShoulder1  6.8713 -11.1369 -40.6412
LeftArm  -10.3827 15.0774 -33.6361
LeftForeArm  35.7649 -16.443 -3.8396
LeftHand  -0.25398 0.0180481 5.50724
RightShoulder  5.28054 9.40813 34.9374
RightArm  -14.4579 -1.92128 17.1098
RightForeArm  -9.96793 20.197 5.53937
RightHand  -1.56622 3.78849 -19.9331
LeftUpLeg  -12.3276 0.808336 -3.58071
LeftLeg  0.286821 12.5065 -5.46764
LeftFoot  5.78639 -0.784908 4.9751
LeftToes  1.06244e-005 4.65856e-005 -8.18505e-006
194
root  -30.841 40.8148 6.46259 -130.988 -83.9545 135.933
RightUpLeg  -4.02802 -13.1582 -17.3404
RightLeg  4.28594 -5.31459 1.02705
RightFoot  -0.763868 -0.938405 10.0602
RightToes  0.000482159 0.542163 -0.142577
Spine  16.7331 1.31222 9.02235
Spine1  10.4496 4.84608 -7.32921
HEad  -20.0569 -7.28712 -3.02154
LeftShoulder1  6.82217 -11.0703 -40.5253
LeftArm  -9.9045 13.8443 -33.2155
LeftForeArm  34.1157 -20.7263 -3.28557
LeftHand  -0.25398 0.0180481 5.50724
RightShoulder  5.2356 9.46081 34.4311
RightArm  -13.502 -3.25961 15.8071
RightForeArm  -8.8597 26.4495 6.05817
RightHand  -1.80208 4.40615 -21.4625
LeftUpLeg  -12.0961 0.885444 -3.49496
LeftLeg  0.222224 12.5956 -5.47647
LeftFoot  5.84156 -0.790379 4.99188
LeftToes  1.06244e-005 4.65856e-005 -8.18505e-006
195
root  -30.8418 40.8286 6.41664 -133.699 -83.7373 138.43
RightUpLeg  -3.88772 -13.0074 -17.2023
RightLeg  4.20885 -5.10341 0.9672
RightFoot  -0.701834 -0.93798 10.0075
RightToes  0.000482159 0.542163 -0.142577
Spine  16.2242 1.03578 8.51219
Spine1  10.7527 4.24938 -6.62827
HEad  -19.7885 -6.46462 -2.47863
LeftShoulder1  6.78348 -11.0352 -40.381
LeftArm  -11.1266 12.4979 -32.4477
LeftForeArm  34.8411 -25.3954 -3.54685
LeftHand  -0.25398 0.0180481 5.50724
RightShoulder  5.13485 9.41459 33.8017
RightArm  -14.8149 -3.91584 15.894
RightForeArm  -6.33459 30.4078 6.97553
RightHand  -1.98729 4.82266 -22.6732
LeftUpLeg  -11.8318 1.03923 -3.33581
LeftLeg  0.214067 12.7783 -5.49273
LeftFoot  5.8381 -0.791358 4.99545
LeftToes  1.06244e-005 4.65856e-005 -8.18505e-006
196
root  -30.8486 40.8425 6.35688 -137.016 -83.2926 141.572
RightUpLeg  -3.88802 -12.9141 -17.1021
RightLeg  4.19639 -4.65611 0.93458
RightFoot  -0.687027 -0.931508 9.91408
RightToes  0.000482159 0.542163 -0.142577
Spine  15.8334 0.934523 7.86784
Spine1  10.7556 3.86357 -6.09302
HEad  -19.5675 -5.86124 -1.79618
LeftShoulder1  6.75681 -11.0484 -40.1683
LeftArm  -13.2276 11.2805 -31.538
LeftForeArm  37.0869 -30.3769 -4.57923
LeftHand  -0.25398 0.0180481 5.50724
RightShoulder  5.04211 9.26431 33.5466
RightArm  -15.9864 -3.70388 16.8543
RightForeArm  -5.32441 32.0247 7.34576
RightHand  -2.05871 5.03389 -22.9992
LeftUpLeg  -11.5417 1.19439 -3.18588
LeftLeg  0.108639 13.1688 -5.54938
LeftFoot  5.825 -0.790159 4.99679
LeftToes  1.06244e-005 4.65856e-005 -8.18505e-006
197
root  -30.8614 40.857 6.28552 -140.501 -82.7063 144.845
RightUpLeg  -3.89046 -12.8926 -17.0426
RightLeg  4.21212 -3.99059 0.979733
RightFoot  -0.695829 -0.915569 9.75348
RightToes  0.000482159 0.542163 -0.142577
Spine  15.5845 0.920841 7.23887
Spine1  10.528 3.64978 -5.81089
HEad  -19.3582 -5.06265 -1.3777
LeftShoulder1  6.72764 -11.0911 -39.851
LeftArm  -14.9958 10.1073 -30.7775
LeftForeArm  39.342 -35.3497 -5.6499
LeftHand  -0.25398 0.0180481 5.50724
RightShoulder  5.0907 9.25769 33.9428
RightArm  -16.9408 -2.72549 18.1411
RightForeArm  -5.58148 31.3904 7.19538
RightHand  -2.11657 5.35889 -22.9401
LeftUpLeg  -11.1778 1.34604 -3.03082
LeftLeg  -0.0263696 13.6934 -5.58744
LeftFoot  5.80006 -0.782313 4.95333
LeftToes  1.06244e-005 4.65856e-005 -8.18505e-006
198
root  -30.8694 40.8718 6.21034 -144.074 -82.1423 148.086
RightUpLeg  -3.75909 -12.8208 -16.9196
RightLeg  4.22113 -3.32418 1.02824
RightFoot  -0.695855 -0.899283 9.57984
RightToes  0.000482159 0.542163 -0.142577
Spine  15.413 0.882894 6.79289
Spine1  10.3765 3.51702 -5.77001
HEad  -19.2704 -4.25691 -1.22272
LeftShoulder1  6.66129 -11.1 -39.3933
LeftArm  -16.5526 8.79742 -30.2917
LeftForeArm  41.4255 -39.8618 -6.74133
LeftHand  -0.25398 0.0180481 5.50724
RightShoulder  5.28283 9.50267 34.6604
RightArm  -17.4905 -1.17743 19.8648
RightForeArm  -6.58317 28.7537 6.57282
RightHand  -2.23856 5.92117 -23.0621
LeftUpLeg  -10.7406 1.55305 -2.8056
LeftLeg  -0.0328617 14.1804 -5.56329
LeftFoot  5.72407 -0.764502 4.8603
LeftToes  1.06244e-005 4.65856e-005 -8.18505e-006
199
root  -30.8696 40.8849 6.1377 -147.458 -81.631 151.08
RightUpLeg  -3.57343 -12.6479 -16.7071
RightLeg  4.25339 -2.7854 0.999049
RightFoot  -0.699205 -0.88629 9.44395
RightToes  0.000482159 0.542163 -0.142577
Spine  15.2018 0.839974 6.46739
Spine1  10.4296 3.41559 -5.76682
HEad  -19.3352 -3.75208 -1.12597
LeftShoulder1  6.57383 -11.0821 -38.8757
LeftArm  -17.6691 7.41251 -30.0452
LeftForeArm  43.0756 -43.7627 -7.82128
LeftHand  -0.25398 0.0180481 5.50724
RightShoulder  5.49314 9.85954 35.1433
RightArm  -17.2333 0.726407 22.2972
RightForeArm  -8.02613 24.6351 5.7124
RightHand  -2.37614 6.51918 -23.258
LeftUpLeg  -10.2961 1.81514 -2.52469
LeftLeg  0.0697805 14.5826 -5.51275
LeftFoot  5.5939 -0.740409 4.742
LeftToes  1.06244e-005 4.65856e-005 -8.18505e-006
200
root  -30.8744 40.8962 6.0668 -150.133 -81.127 153.434
RightUpLeg  -3.4646 -12.466 -16.496
RightLeg  4.33377 -2.32329 0.930404
RightFoot  -0.737116 -0.871936 9.32123
RightToes  0.000482159 0.542163 -0.142577
Spine  14.8875 0.878043 6.17388
Spine1  10.5439 3.38277 -5.69126
HEad  -19.5287 -3.7959 -0.997359
LeftShoulder1  6.52594 -11.1255 -38.4356
LeftArm  -18.1965 6.16773 -29.9632
LeftForeArm  44.5602 -47.1258 -8.87279
LeftHand  -0.25398 0.0180481 5.50724
RightShoulder  5.65848 10.2013 35.3205
RightArm  -16.5481 2.5534 25.1481
RightForeArm  -8.39495 19.9512 5.21549
RightHand  -2.37717 6.70881 -22.9193
LeftUpLeg  -9.898 2.0486 -2.27195
LeftLeg  0.128429 14.9687 -5.47948
LeftFoot  5.45837 -0.710705 4.58561
LeftToes  1.06244e-005 4.65856e-005 -8.18505e-006
